<?xml version="1.0" encoding="utf-8"?>
<!-- Generator: Adobe Illustrator 19.2.0, SVG Export Plug-In . SVG Version: 6.00 Build 0)  -->
<svg version="1.1" id="Layer_1" xmlns="http://www.w3.org/2000/svg" xmlns:xlink="http://www.w3.org/1999/xlink" x="0px" y="0px"
	 viewBox="0 0 1000 500" style="enable-background:new 0 0 1000 500;" xml:space="preserve">
<g>
	<path d="M24.7,235.2V22H62l0.3,177.7h129.7v35.5H24.7z"/>
	<path d="M209,22h37.5v213.3H209V22z"/>
	<path d="M264.7,22h133.1v35.5h-95.5v53.2h95.5v35.5h-95.5v89h-37.5V22z"/>
	<path d="M414.9,22H548v35.5h-95.5v53.2H548v35.5h-95.5v53.5H548v35.5H414.9V22z"/>
	<path d="M24.7,259.2h133.1v35.5H62.3v53.2h95.5v35.5H62.3v89H24.7V259.2z"/>
	<path d="M286.1,254.7c61.4,0,111.2,48.3,111.2,111.2S347.5,477,286.1,477s-111.2-48.3-111.2-111.2S224.6,254.7,286.1,254.7z
		 M286.1,441.8c42.1,0,75.9-33,75.9-75.9c0-42.9-33.8-76.2-75.9-76.2c-42.1,0-75.6,33.3-75.6,76.2
		C210.4,408.8,244,441.8,286.1,441.8z"/>
	<path d="M451.8,420.2v52.3h-37.5V259.2h87c36.4,0,68,23,68,61.4c0,38.4-31.6,61.7-68,61.7h-46.1l114,49.2v41.2L451.8,420.2z
		 M502.2,294.7h-50.3v52h50.3c16.2,0,29.6-8.8,29.6-26.2C531.7,303,518.4,294.7,502.2,294.7z"/>
	<path d="M673.9,389.2l26.7-130h60.9v213.3h-36.7v-157l-35,157H658l-35-157v157h-36.7V259.2h60.9L673.9,389.2z"/>
	<path d="M818.7,316.9c0,15.6,19.9,24.5,40.9,34.7c25,12.2,53.7,27.3,53.7,62.8c0,37-27.6,62.3-67.1,62.3
		c-27.9,0-57.2-21.9-67.7-44.9l27-26.2c7.7,16.2,23,35,41.2,35c15.6,0,28.4-8.8,28.4-25.3c0-13.9-16.5-21.3-36.1-31.3
		c-25.3-12.8-58-28.4-58-66.8c0-35.5,27-62.3,65.4-62.3c27.9,0,55.7,21.9,66.3,44.6l-27.3,26.2c-8-15.9-21.3-35-39.5-35
		C830.6,290.8,818.7,300.7,818.7,316.9z"/>
</g>
</svg>
