<?xml version="1.0" encoding="UTF-8"?>
<svg width="305px" height="136px" viewBox="0 0 305 136" version="1.1" xmlns="http://www.w3.org/2000/svg" xmlns:xlink="http://www.w3.org/1999/xlink">
    <!-- Generator: Sketch 52.6 (67491) - http://www.bohemiancoding.com/sketch -->
    <title>Group 3</title>
    <desc>Created with Sketch.</desc>
    <g id="Page-1" stroke="none" stroke-width="1" fill="none" fill-rule="evenodd">
        <g id="Group-3" transform="translate(152.500000, 68.000000) rotate(-270.000000) translate(-152.500000, -68.000000) translate(84.500000, -84.500000)" fill="#000000">
            <polygon id="Path" points="63.54 254.52 52.95 254.52 52.95 293.15 -1.77635684e-14 293.15 -1.77635684e-14 304.34 63.54 304.34"></polygon>
            <polygon id="Path" points="63.54 250.46 63.54 210.81 52.95 210.81 52.95 239.28 37.02 239.28 37.02 210.81 26.43 210.81 26.43 239.28 10.59 239.28 10.59 210.81 -1.77635684e-14 210.81 -1.77635684e-14 250.46"></polygon>
            <path d="M18.47,175.41 C23.72,175.41 26.43,179.39 26.43,184.22 L26.43,194.05 L10.59,194.05 L10.59,184.22 C10.59,179.39 13.22,175.41 18.47,175.41 Z M45.07,175.41 C50.32,175.41 52.95,179.39 52.95,184.22 L52.95,194.05 L37.02,194.05 L37.02,184.22 C37.02,179.39 39.82,175.41 45.07,175.41 Z M63.54,205.23 L63.54,184.48 C63.54,173.64 56.51,164.23 45.07,164.23 C39.39,164.23 34.91,166.69 31.85,170.41 C28.8,166.51 24.31,164.23 18.47,164.23 C7.03,164.23 -1.77635684e-14,173.63 -1.77635684e-14,184.48 L-1.77635684e-14,205.23 L63.54,205.23 Z" id="Shape"></path>
            <polygon id="Path" points="63.54 159.51 63.54 121.03 53.26 121.03 53.26 148.65 37.8 148.65 37.8 121.03 27.52 121.03 27.52 148.65 12.15 148.65 12.15 121.03 1.87 121.03 1.87 159.51"></polygon>
            <polygon id="Path" points="43.47 81.92 1.87 104.53 1.87 116.29 63.54 116.29 63.54 105.6 22.01 105.6 63.54 82.91 63.54 71.23 1.87 71.23 1.87 81.92"></polygon>
            <path d="M11,48.04 C11,42.78 16.51,38.91 21.11,36.61 L13.55,28.72 C6.97,31.76 0.64,39.82 0.64,47.88 C0.64,58.98 8.37,66.79 18.65,66.79 C29.75,66.79 34.27,57.33 37.97,50.02 C40.85,44.35 42.99,39.58 47.01,39.58 C51.78,39.58 54.33,43.28 54.33,47.8 C54.33,53.06 48.9,57.5 44.22,59.72 L51.79,67.53 C58.45,64.49 64.78,56.02 64.78,47.96 C64.78,36.53 57.46,28.55 46.77,28.55 C36.49,28.55 32.13,36.86 28.6,44.09 C25.64,50.17 23.09,55.93 18.57,55.93 C13.87,55.93 11,52.48 11,48.04 Z" id="Path"></path>
            <polygon id="Path" points="134.02 304.39 134.02 293.53 108.28 293.53 108.28 265.91 98 265.91 98 293.53 82.63 293.53 82.63 265.91 72.35 265.91 72.35 304.39"></polygon>
            <path d="M103.18,251.36 C90.76,251.36 81.14,241.66 81.14,229.49 C81.14,217.32 90.76,207.54 103.18,207.54 C115.6,207.54 125.13,217.33 125.13,229.49 C125.13,241.65 115.6,251.36 103.18,251.36 Z M103.18,261.64 C121.35,261.64 135.33,247.25 135.33,229.49 C135.33,211.73 121.35,197.34 103.18,197.34 C85.01,197.34 71.03,211.73 71.03,229.49 C71.03,247.25 85.01,261.64 103.18,261.64 Z" id="Shape"></path>
            <path d="M90.11,158.89 C95.12,158.89 97.67,162.75 97.67,167.44 L97.67,181.99 L82.62,181.99 L82.62,167.44 C82.63,162.76 85.01,158.89 90.11,158.89 Z M134.1,148.04 L122.18,148.04 L107.96,181.01 L107.96,167.69 C107.96,157.17 101.22,148.04 90.12,148.04 C79.02,148.04 72.36,157.17 72.36,167.69 L72.36,192.85 L134.03,192.85 L134.03,182 L118.9,182 L134.1,148.04 Z" id="Shape"></path>
            <polygon id="Path" points="72.35 126.25 72.35 143.85 134.02 143.85 134.02 133.24 88.63 133.24 134.02 123.13 134.02 113.92 88.63 103.8 134.02 103.8 134.02 93.2 72.35 93.2 72.35 110.79 109.92 118.52"></polygon>
            <polygon id="Path" points="134.02 88.46 134.02 49.98 123.74 49.98 123.74 77.61 108.28 77.61 108.28 49.98 98 49.98 98 77.61 82.63 77.61 82.63 49.98 72.35 49.98 72.35 88.46"></polygon>
            <polygon id="Path" points="113.95 10.69 72.35 33.3 72.35 45.06 134.02 45.06 134.02 34.37 92.49 34.37 134.02 11.68 134.02 -2.84217094e-14 72.35 -2.84217094e-14 72.35 10.69"></polygon>
        </g>
    </g>
</svg>