<svg width="298" height="567" viewBox="0 0 298 567" fill="none" xmlns="http://www.w3.org/2000/svg">
<path d="M196.95 368.48H184.16V415.12L120.24 415.22V428.62H196.95V368.48Z" fill="black"/>
<path d="M196.95 361.63V313.76H184.16V348.13H164.93V313.76H152.15V348.13H133.02V313.76H120.24V361.63H196.95Z" fill="black"/>
<path d="M142.53 269.88C148.87 269.88 152.14 274.69 152.14 280.52V292.38H133.01V280.52C133.02 274.69 136.19 269.88 142.53 269.88ZM174.65 269.88C180.99 269.88 184.16 274.69 184.16 280.52V292.38H164.93V280.52C164.93 274.69 168.31 269.88 174.65 269.88ZM196.95 305.88V280.82C196.95 267.73 188.46 256.37 174.65 256.37C167.8 256.37 162.38 259.34 158.69 263.84C155.01 259.14 149.59 256.37 142.53 256.37C128.72 256.37 120.23 267.72 120.23 280.82V305.88H196.95Z" fill="black"/>
<path d="M196.95 249.45V202.99H184.54V236.34H165.88V202.99H153.47V236.34H134.9V202.99H122.49V249.45H196.95Z" fill="black"/>
<path d="M172.73 153.85L122.49 181.15V195.34H196.95V182.44H146.81L196.95 155.04V140.94H122.49V153.85H172.73Z" fill="black"/>
<path d="M133.51 111.55C133.51 105.2 140.16 100.53 145.72 97.75L136.59 88.22C128.65 91.89 121 101.62 121 111.35C121 124.75 130.33 134.18 142.74 134.18C156.14 134.18 161.6 122.76 166.07 113.93C169.54 107.08 172.13 101.32 176.99 101.32C182.75 101.32 185.83 105.79 185.83 111.25C185.83 117.6 179.28 122.96 173.62 125.64L182.75 135.07C190.79 131.4 198.44 121.17 198.44 111.44C198.44 97.64 189.6 88.01 176.7 88.01C164.29 88.01 159.03 98.04 154.76 106.77C151.19 114.12 148.11 121.07 142.65 121.07C136.99 121.08 133.51 116.91 133.51 111.55Z" fill="black"/>
<path d="M282.05 389.97V376.86H250.97V343.5H238.56V376.86H220V343.5H207.59V389.97H282.05Z" fill="black"/>
<path d="M244.82 326.54C229.83 326.54 218.21 314.83 218.21 300.13C218.21 285.43 229.82 273.62 244.82 273.62C259.81 273.62 271.33 285.43 271.33 300.13C271.33 314.83 259.81 326.54 244.82 326.54ZM244.82 338.95C266.76 338.95 283.64 321.58 283.64 300.13C283.64 278.69 266.76 261.31 244.82 261.31C222.88 261.31 206 278.68 206 300.13C206 321.57 222.88 338.95 244.82 338.95Z" fill="black"/>
<path d="M229.03 215.79C235.09 215.79 238.16 220.46 238.16 226.12V243.69H220V226.12C220 220.45 222.88 215.79 229.03 215.79ZM282.15 202.68H267.75L250.58 242.49V226.41C250.58 213.7 242.44 202.68 229.04 202.68C215.64 202.68 207.6 213.7 207.6 226.41V256.79H282.06V243.68H263.79L282.15 202.68Z" fill="black"/>
<path d="M207.59 174.69V195.93H282.05V183.13H227.25L282.05 170.91V159.8L227.25 147.58H282.05V134.78H207.59V156.02L252.96 165.35L207.59 174.69Z" fill="black"/>
<path d="M282.05 127.13V80.67H269.64V114.03H250.97V80.67H238.56V114.03H220V80.67H207.59V127.13H282.05Z" fill="black"/>
<path d="M257.82 31.53L207.59 58.83V73.03H282.05V60.12H231.91L282.05 32.72V18.63H207.59V31.53H257.82Z" fill="black"/>
</svg>
