<svg width="439" height="908" viewBox="0 0 439 908" fill="none" xmlns="http://www.w3.org/2000/svg">
<rect width="439" height="908" fill="white"/>
<path d="M28.0035 148.491V61.932H43.11L43.2315 134.078H95.76V148.491H28.0035Z" fill="black"/>
<path d="M102.645 61.932H117.832V148.532H102.645V61.932Z" fill="black"/>
<path d="M125.204 61.932H179.109V76.345H140.431V97.9442H179.109V112.357H140.431V148.491H125.244V61.932H125.204Z" fill="black"/>
<path d="M186.034 61.932H239.94V76.345H201.262V97.9442H239.94V112.357H201.262V134.078H239.94V148.491H186.034V61.932Z" fill="black"/>
<path d="M28.0035 158.235H81.909V172.648H43.2315V194.247H81.909V208.66H43.2315V244.794H28.0035V158.235Z" fill="black"/>
<path d="M133.871 156.408C158.738 156.408 178.906 176.018 178.906 201.555C178.906 227.093 158.738 246.662 133.871 246.662C109.004 246.662 88.8345 227.052 88.8345 201.515C88.8345 175.977 108.963 156.408 133.871 156.408ZM133.871 232.371C150.921 232.371 164.61 218.973 164.61 201.555C164.61 184.138 150.921 170.618 133.871 170.618C116.82 170.618 103.252 184.138 103.252 201.555C103.212 218.973 116.82 232.371 133.871 232.371Z" fill="black"/>
<path d="M200.979 223.601V244.835H185.791V158.235H221.026C235.768 158.235 248.566 167.573 248.566 183.164C248.566 198.754 235.768 208.214 221.026 208.214H202.356L248.526 228.189V244.916L200.979 223.601ZM221.391 172.648H201.019V193.76H221.391C227.952 193.76 233.379 190.187 233.379 183.123C233.338 176.018 227.952 172.648 221.391 172.648Z" fill="black"/>
<path d="M290.93 211.015L301.743 158.235H326.408V244.835H311.544V181.093L297.369 244.835H284.49L270.315 181.093V244.835H255.451V158.235H280.116L290.93 211.015Z" fill="black"/>
<path d="M349.574 181.661C349.574 187.995 357.633 191.608 366.138 195.75C376.263 200.703 387.887 206.833 387.887 221.246C387.887 236.268 376.709 246.54 360.711 246.54C349.412 246.54 337.545 237.649 333.293 228.311L344.228 217.674C347.346 224.251 353.543 231.884 360.914 231.884C367.232 231.884 372.416 228.311 372.416 221.612C372.416 215.968 365.733 212.964 357.795 208.904C347.549 203.707 334.305 197.374 334.305 181.783C334.305 167.37 345.24 156.489 360.792 156.489C372.092 156.489 383.351 165.381 387.644 174.597L376.587 185.234C373.347 178.779 367.961 171.024 360.59 171.024C354.393 171.065 349.574 175.084 349.574 181.661Z" fill="black"/>
</svg>
