<svg width="439" height="908" viewBox="0 0 439 908" fill="none" xmlns="http://www.w3.org/2000/svg">
<rect width="439" height="908" fill="white"/>
<g clip-path="url(#clip0)">
<path d="M149.531 714.081L20.332 714.081L20.332 691.552L128.018 691.371L128.018 613.032L149.531 613.032L149.531 714.081Z" fill="black"/>
<path d="M20.332 602.764L20.332 580.114L149.592 580.114L149.592 602.764L20.332 602.764Z" fill="black"/>
<path d="M20.332 569.121L20.332 488.729L41.845 488.729L41.845 546.411L74.0842 546.411L74.0842 488.729L95.5972 488.729L95.5972 546.411L149.531 546.411L149.531 569.061L20.332 569.061L20.332 569.121Z" fill="black"/>
<path d="M20.332 478.4L20.332 398.008L41.845 398.008L41.845 455.69L74.0842 455.69L74.0842 398.008L95.5972 398.008L95.5972 455.69L128.018 455.69L128.018 398.008L149.531 398.008L149.531 478.4L20.332 478.4Z" fill="black"/>
<path d="M164.075 714.081L164.075 633.689L185.588 633.689L185.588 691.371L217.827 691.371L217.827 633.689L239.34 633.689L239.34 691.371L293.274 691.371L293.274 714.081L164.075 714.081Z" fill="black"/>
<path d="M161.348 556.196C161.348 519.11 190.618 489.031 228.735 489.031C266.853 489.031 296.062 519.11 296.062 556.196C296.062 593.281 266.792 623.36 228.675 623.36C190.557 623.36 161.348 593.342 161.348 556.196ZM274.731 556.196C274.731 530.767 254.733 510.352 228.735 510.352C202.738 510.352 182.558 530.767 182.558 556.196C182.558 581.624 202.738 601.858 228.735 601.858C254.733 601.918 274.731 581.624 274.731 556.196Z" fill="black"/>
<path d="M261.641 456.113L293.335 456.113L293.335 478.763L164.075 478.763L164.075 426.215C164.075 404.229 178.013 385.143 201.284 385.143C224.554 385.143 238.674 404.229 238.674 426.215L238.674 454.059L268.489 385.203L293.456 385.203L261.641 456.113ZM185.588 425.671L185.588 456.052L217.1 456.052L217.1 425.671C217.1 415.886 211.767 407.793 201.223 407.793C190.618 407.853 185.588 415.886 185.588 425.671Z" fill="black"/>
<path d="M242.855 321.964L164.075 305.838L164.075 269.054L293.335 269.054L293.335 291.221L198.193 291.221L293.335 312.361L293.335 331.568L198.193 352.708L293.335 352.708L293.335 374.875L164.075 374.875L164.075 338.091L242.855 321.964Z" fill="black"/>
<path d="M199.041 234.505C208.495 234.505 213.888 222.486 220.07 209.802C227.463 194.702 236.613 177.367 258.126 177.367C280.548 177.367 295.88 194.037 295.88 217.895C295.88 234.747 282.609 252.444 268.671 258.786L252.794 242.478C262.611 237.827 274.004 228.586 274.004 217.593C274.004 208.171 268.671 200.44 258.672 200.44C250.248 200.44 245.764 210.406 239.704 222.244C231.947 237.525 222.494 257.276 199.223 257.276C177.71 257.276 161.469 240.968 161.469 217.774C161.469 200.923 174.741 184.132 188.497 177.729L204.374 194.218C194.739 199.05 183.164 207.084 183.164 218.076C183.225 227.318 189.224 234.505 199.041 234.505Z" fill="black"/>
</g>
<defs>
<clipPath id="clip0">
<rect width="604" height="303" fill="white" transform="translate(7.00002 729) rotate(-90)"/>
</clipPath>
</defs>
</svg>
