<?xml version="1.0" encoding="UTF-8"?>
<svg width="256px" height="137px" viewBox="0 0 256 137" version="1.1" xmlns="http://www.w3.org/2000/svg" xmlns:xlink="http://www.w3.org/1999/xlink">
    <!-- Generator: Sketch 52.6 (67491) - http://www.bohemiancoding.com/sketch -->
    <title>Group 2</title>
    <desc>Created with Sketch.</desc>
    <g id="Page-1" stroke="none" stroke-width="1" fill="none" fill-rule="evenodd">
        <g id="Group-2" transform="translate(128.000000, 68.500000) rotate(-270.000000) translate(-128.000000, -68.500000) translate(59.500000, -59.500000)" fill="#000000">
            <polygon id="Path" points="64.44 205.38 53.85 205.38 53.85 244.01 0.9 244.01 0.9 255.2 64.44 255.2"></polygon>
            <rect id="Rectangle" x="0.9" y="188.1" width="63.54" height="11.18"></rect>
            <polygon id="Path" points="64.44 181.57 64.44 170.39 37.92 170.39 37.92 141.93 27.33 141.93 27.33 170.39 11.49 170.39 11.49 141.93 0.9 141.93 0.9 181.57"></polygon>
            <polygon id="Path" points="64.44 136.26 64.44 96.61 53.85 96.61 53.85 125.08 37.92 125.08 37.92 96.61 27.33 96.61 27.33 125.08 11.49 125.08 11.49 96.61 0.9 96.61 0.9 136.26"></polygon>
            <polygon id="Path" points="134.92 255.25 134.92 244.39 109.18 244.39 109.18 216.77 98.9 216.77 98.9 244.39 83.53 244.39 83.53 216.77 73.25 216.77 73.25 255.25"></polygon>
            <path d="M104.08,202.71 C91.66,202.71 82.04,193.01 82.04,180.84 C82.04,168.67 91.66,158.89 104.08,158.89 C116.5,158.89 126.03,168.68 126.03,180.84 C126.03,193 116.5,202.71 104.08,202.71 Z M104.08,212.99 C122.25,212.99 136.23,198.6 136.23,180.84 C136.23,163.08 122.25,148.69 104.08,148.69 C85.91,148.69 71.93,163.08 71.93,180.84 C71.93,198.6 85.91,212.99 104.08,212.99 Z" id="Shape"></path>
            <path d="M91.01,110 C96.02,110 98.57,113.86 98.57,118.55 L98.57,133.1 L83.52,133.1 L83.52,118.55 C83.53,113.86 85.91,110 91.01,110 Z M135,99.15 L123.08,99.15 L108.86,132.12 L108.86,118.8 C108.86,108.28 102.12,99.15 91.02,99.15 C79.92,99.15 73.26,108.28 73.26,118.8 L73.26,143.96 L134.93,143.96 L134.93,133.1 L119.8,133.1 L135,99.15 Z" id="Shape"></path>
            <polygon id="Path" points="73.25 77.61 73.25 95.2 134.92 95.2 134.92 84.59 89.53 84.59 134.92 74.48 134.92 65.27 89.53 55.16 134.92 55.16 134.92 44.55 73.25 44.55 73.25 62.15 110.82 69.88"></polygon>
            <path d="M82.38,20.33 C82.38,15.07 87.89,11.2 92.49,8.9 L84.93,1.01 C78.35,4.05 72.02,12.11 72.02,20.17 C72.02,31.27 79.75,39.08 90.03,39.08 C101.13,39.08 105.65,29.62 109.35,22.31 C112.23,16.64 114.37,11.87 118.39,11.87 C123.16,11.87 125.71,15.57 125.71,20.09 C125.71,25.35 120.28,29.79 115.6,32.01 L123.17,39.82 C129.83,36.78 136.16,28.31 136.16,20.25 C136.16,8.82 128.84,0.84 118.15,0.84 C107.87,0.84 103.51,9.15 99.98,16.38 C97.02,22.46 94.47,28.22 89.95,28.22 C85.25,28.22 82.38,24.77 82.38,20.33 Z" id="Path"></path>
        </g>
    </g>
</svg>